<svg width="32" height="32" viewBox="0 0 32 32" fill="none" xmlns="http://www.w3.org/2000/svg">
<g clip-path="url(#clip0_841_985)">
<path d="M16.5007 1.33398C24.3249 1.33398 30.6673 7.6764 30.6673 15.5007C30.6673 23.3249 24.3249 29.6673 16.5007 29.6673C8.6764 29.6673 2.33398 23.3249 2.33398 15.5007C2.33398 7.6764 8.6764 1.33398 16.5007 1.33398ZM16.5007 7.00065C16.1249 7.00065 15.7646 7.14991 15.4989 7.41558C15.2332 7.68126 15.084 8.04159 15.084 8.41732V15.5007C15.0841 15.8763 15.2334 16.2366 15.4991 16.5022L19.7491 20.7522C20.0163 21.0103 20.3741 21.1531 20.7456 21.1499C21.117 21.1466 21.4723 20.9976 21.735 20.735C21.9976 20.4723 22.1466 20.117 22.1499 19.7456C22.1531 19.3741 22.0103 19.0163 21.7522 18.7491L17.9173 14.9142V8.41732C17.9173 8.04159 17.7681 7.68126 17.5024 7.41558C17.2367 7.14991 16.8764 7.00065 16.5007 7.00065Z" fill="white"/>
</g>
<defs>
<clipPath id="clip0_841_985">
<rect width="32" height="32" fill="white"/>
</clipPath>
</defs>
</svg>
