<svg width="24" height="24" viewBox="0 0 24 24" fill="none" xmlns="http://www.w3.org/2000/svg">
  <rect x="2" y="2" width="20" height="20" rx="5" ry="5" stroke="#F4F5F7" stroke-width="2" stroke-linecap="round" stroke-linejoin="round"/>
  <path d="M16 11.37C16.1234 12.2022 15.9813 13.0522 15.5938 13.799C15.2063 14.5458 14.5931 15.1514 13.8416 15.5287C13.0901 15.9059 12.2384 16.0356 11.4067 15.9C10.575 15.7645 9.8053 15.3701 9.2052 14.77C8.60516 14.1699 8.21077 13.4002 8.07526 12.5685C7.93976 11.7368 8.06941 10.8851 8.44665 10.1336C8.8239 9.38209 9.42952 8.76891 10.1763 8.3814C10.9231 7.99388 11.7731 7.85175 12.6053 7.97519C13.4542 8.10178 14.2485 8.52157 14.8517 9.1673C15.4549 9.81302 15.8271 10.6429 15.9997 11.53M16 11.37Z" stroke="#F4F5F7" stroke-width="2" stroke-linecap="round" stroke-linejoin="round"/>
  <line x1="17.5" y1="6.5" x2="17.51" y2="6.5" stroke="#F4F5F7" stroke-width="2" stroke-linecap="round" stroke-linejoin="round"/>
</svg>
