<svg width="31" height="31" viewBox="0 0 31 31" fill="none" xmlns="http://www.w3.org/2000/svg">
<g clip-path="url(#clip0_841_1003)">
<path d="M16.2979 6.46386C16.4193 6.6744 16.5239 6.89399 16.6117 7.12261C18.4007 6.17065 20.3782 6.04536 22.0987 6.70669C24.85 7.76586 26.5627 10.6876 25.8084 14.4619C25.7713 14.6478 25.6938 14.8233 25.5812 14.9759C25.4687 15.1285 25.324 15.2545 25.1573 15.3448C24.9906 15.4352 24.8061 15.4878 24.6168 15.4988C24.4275 15.5098 24.2381 15.4791 24.0621 15.4087L17.9602 12.9674C18.7804 15.8982 18.8644 18.8807 18.7262 21.2276C18.6257 22.8787 18.3985 24.5196 18.0468 26.1359C17.9749 26.4157 17.8131 26.664 17.5862 26.8428C17.3594 27.0216 17.0801 27.1209 16.7913 27.1254H13.5621C13.3421 27.1254 13.1257 27.0691 12.9335 26.9621C12.7413 26.855 12.5796 26.7006 12.4638 26.5135C12.348 26.3264 12.282 26.1128 12.2718 25.8931C12.2617 25.6733 12.3079 25.4545 12.4061 25.2576C12.9925 24.0822 13.38 22.7776 13.6771 21.504C14.1679 19.3999 14.4469 16.7249 13.8166 14.0382L6.8196 18.5332C6.63728 18.6501 6.42848 18.7192 6.21244 18.7343C5.99639 18.7494 5.78001 18.7099 5.58322 18.6195C5.38642 18.5291 5.21552 18.3906 5.08623 18.2169C4.95695 18.0431 4.87343 17.8396 4.84335 17.6252C4.35769 14.1467 5.76819 11.0493 8.16294 9.42049C8.27273 9.34557 8.3851 9.27324 8.49877 9.20478L6.02394 8.32128C5.81872 8.24806 5.63536 8.12411 5.49093 7.96098C5.34649 7.79784 5.24567 7.60082 5.19784 7.38825C5.15001 7.17568 5.15674 6.95446 5.21739 6.74518C5.27804 6.53591 5.39065 6.34538 5.54473 6.19132C7.80902 3.92703 10.8987 3.29411 13.3244 4.10269C14.5464 4.51086 15.6326 5.29878 16.2979 6.46386Z" fill="white"/>
</g>
<defs>
<clipPath id="clip0_841_1003">
<rect width="31" height="31" fill="white"/>
</clipPath>
</defs>
</svg>
