<svg width="30" height="30" viewBox="0 0 30 30" fill="none" xmlns="http://www.w3.org/2000/svg">
<g clip-path="url(#clip0_841_1021)">
<path d="M7.5 5.01245C4.475 7.29995 2.5 10.9125 2.5 15C2.5 16.825 2.9 18.5625 3.6125 20.1375L7.5 17.8875V5.01245Z" fill="white"/>
<path d="M13.75 14.275V2.5625C12.425 2.7 11.1625 3.0375 10 3.55V16.45L13.75 14.275Z" fill="white"/>
<path d="M15.0008 16.4375L4.86328 22.2875C5.62578 23.3375 6.53828 24.275 7.58828 25.0375L18.7508 18.6125L15.0008 16.4375Z" fill="white"/>
<path d="M16.25 9.94995V14.275L26.3875 20.125C26.9125 18.9625 27.2625 17.7125 27.4125 16.4L16.25 9.94995Z" fill="white"/>
<path d="M10.0879 26.4998C11.6004 27.1373 13.2504 27.4998 15.0004 27.4998C19.1754 27.4998 22.8629 25.4373 25.1379 22.2998L21.2504 20.0498L10.0879 26.4998Z" fill="white"/>
<path d="M27.4 13.5125C26.7125 7.725 22.075 3.1375 16.25 2.5625V7.0625L27.4 13.5125Z" fill="white"/>
</g>
<defs>
<clipPath id="clip0_841_1021">
<rect width="30" height="30" fill="white"/>
</clipPath>
</defs>
</svg>
