<svg width="26" height="26" viewBox="0 0 26 26" fill="none" xmlns="http://www.w3.org/2000/svg">
<g clip-path="url(#clip0_841_1014)">
<path fill-rule="evenodd" clip-rule="evenodd" d="M19.1773 0.519756C19.2743 0.363911 19.4154 0.240331 19.5826 0.164634C19.7499 0.0889374 19.9358 0.064521 20.117 0.0944707L24.8917 0.891185C25.1345 0.931678 25.3512 1.0669 25.4943 1.26713C25.6375 1.46737 25.6952 1.71623 25.655 1.95904L24.8601 6.73561C24.8298 6.91668 24.7465 7.08469 24.6207 7.21842C24.4949 7.35214 24.3323 7.44558 24.1534 7.48692C23.9745 7.52826 23.7874 7.51564 23.6157 7.45068C23.444 7.38571 23.2954 7.27129 23.1887 7.1219L21.8998 5.32047L15.2624 9.56219C14.9794 9.74331 14.6404 9.816 14.3079 9.76685C13.9755 9.7177 13.6721 9.55003 13.4535 9.29476L9.75226 4.96761L2.83069 8.52404C2.50216 8.69299 2.11998 8.7245 1.76821 8.61166C1.41645 8.49881 1.12392 8.25085 0.954973 7.92233C0.78603 7.5938 0.754513 7.21162 0.867357 6.85985C0.9802 6.50809 1.22816 6.21556 1.55669 6.04661L9.45883 1.98504C9.73781 1.84172 10.057 1.79675 10.3647 1.85742C10.6725 1.91809 10.9507 2.08084 11.1544 2.31933L14.7833 6.5629L20.2804 3.04919L19.2088 1.55047C19.1023 1.40102 19.0424 1.22335 19.0368 1.0399C19.0312 0.856449 19.0801 0.675448 19.1773 0.519756ZM7.0204 9.63833L1.63097 12.7212C1.41806 12.8428 1.24103 13.0185 1.11777 13.2304C0.994505 13.4424 0.929379 13.6831 0.928973 13.9283V24.6069C0.928973 25.3758 1.55297 25.9998 2.32183 25.9998H7.0204V9.63833ZM9.34183 25.9998H16.1538V13.3489L13.0914 14.8792L10.0308 9.52318C9.87627 9.2508 9.63409 9.03873 9.34369 8.92147L9.34183 25.9998ZM23.679 25.9998H18.4753V12.1882L23.0568 9.89647C23.2692 9.79046 23.5051 9.74047 23.7422 9.75124C23.9793 9.76201 24.2097 9.8332 24.4116 9.95804C24.6134 10.0829 24.7801 10.2572 24.8956 10.4645C25.0112 10.6719 25.0718 10.9053 25.0718 11.1426V24.6069C25.0718 24.9763 24.9251 25.3306 24.6639 25.5918C24.4027 25.853 24.0484 25.9998 23.679 25.9998Z" fill="white"/>
</g>
<defs>
<clipPath id="clip0_841_1014">
<rect width="26" height="26" fill="white"/>
</clipPath>
</defs>
</svg>
