<svg width="27" height="27" viewBox="0 0 27 27" fill="none" xmlns="http://www.w3.org/2000/svg">
<path d="M9.20673 19.3326H17.4607C16.6343 23.697 14.98 26.6667 13.3337 26.6667C11.7381 26.6667 10.1345 23.8744 9.28404 19.7273L9.20673 19.3326ZM1.42459 19.3339H7.16455C7.64977 22.1102 8.4749 24.4731 9.55331 26.1253C6.16423 25.119 3.31152 22.8109 1.61921 19.706L1.42459 19.3339ZM19.5043 19.3339H25.2429C24.4219 20.9599 23.2776 22.401 21.88 23.5689C20.4824 24.7367 18.8611 25.6066 17.1155 26.1253C18.1219 24.5811 18.9071 22.4209 19.4016 19.8833L19.5043 19.3339ZM19.9068 10.6664H26.3986C26.8485 12.8822 26.7306 15.1758 26.056 17.3337H19.7855C19.988 15.4099 20.046 13.4736 19.9588 11.5412L19.9068 10.6664ZM0.270199 10.6651H6.76198C6.62136 12.6278 6.63607 14.5986 6.80597 16.559L6.88195 17.3324H0.611451C-0.0636082 15.1746 -0.181919 12.8809 0.267533 10.6651M8.76816 10.6651H17.898C18.0492 12.6298 18.0327 14.6038 17.8487 16.5657L17.766 17.3324H8.90013C8.66723 15.3358 8.60835 13.3226 8.72417 11.3158L8.76816 10.6651ZM17.2568 0.76541L17.1128 0.53872C19.0947 1.12704 20.9131 2.16704 22.4253 3.57703C23.9375 4.98702 25.1023 6.72858 25.8281 8.66487H19.7095C19.2883 5.44321 18.4338 2.67493 17.2595 0.766743L17.1155 0.540054L17.2568 0.76541ZM9.38935 0.588059L9.55198 0.53872C8.37892 2.34023 7.5058 4.97917 7.04191 8.07814L6.95926 8.66487H0.843395C1.55871 6.75588 2.70082 5.03574 4.18244 3.63589C5.66406 2.23604 7.44597 1.19354 9.39202 0.588059L9.55464 0.53872L9.38935 0.588059ZM13.3337 0C15.092 0 16.8609 3.38967 17.618 8.24483L17.6807 8.66487H8.98678C9.70794 3.58569 11.5262 0 13.3337 0Z" fill="white"/>
</svg>
